<svg width="20" height="20" viewBox="0 0 20 20" fill="#00494D" xmlns="http://www.w3.org/2000/svg">
    <path d="M4.16187 9.91331C4.16187 9.91331 9.16187 7.86129 10.896 7.13874C11.5607 6.84973 13.8151 5.92487 13.8151 5.92487C13.8151 5.92487 14.8555 5.52025 14.7688 6.50291C14.7399 6.90753 14.5087 8.32371 14.2775 9.85551C13.9307 12.0231 13.5549 14.3931 13.5549 14.3931C13.5549 14.3931 13.4971 15.0578 13.0058 15.1734C12.5145 15.289 11.7052 14.7688 11.5607 14.6532C11.4451 14.5665 9.39309 13.2659 8.64164 12.6301C8.43933 12.4567 8.20811 12.1098 8.67054 11.7052C9.71101 10.7515 10.9538 9.56649 11.7052 8.81504C12.052 8.46822 12.3989 7.65898 10.9538 8.64163C8.90176 10.0578 6.87863 11.3873 6.87863 11.3873C6.87863 11.3873 6.41621 11.6763 5.54915 11.4162C4.6821 11.1561 3.67054 10.8093 3.67054 10.8093C3.67054 10.8093 2.9769 10.3757 4.16187 9.91331Z" fill="white"/>
</svg>
